# xmcd
#
# Track frame offsets:
#	182
#	12657
#	28842
#	46250
#	67022
#	89422
#	109812
#	127912
#	144160
#	161795
#	175657
#	191587
#	212457
#
# Disc length: 3154 seconds
#
# Revision: 1
# Processed by: cddbd v1.5.2PL0 Copyright (c) Steve Scherf et al.
# Submitted via: audiograbber 1.83.01
#
DISCID=b10c500d
DTITLE=Various Artist - KID'S RHYTHM 'N' BLUES KAFFEE SUMMER 97
DYEAR=1900
DGENRE=Blues
TTITLE0=The Howling Dogs - Say Hello
TTITLE1=The Regulators - Back To The Planet
TTITLE2=Hideaway - The Question
TTITLE3=The Blues Rats - Twelve Bar Blues
TTITLE4=Polle's Blues Band - Lowdown Woman
TTITLE5=Catch 22 - Politician Blues
TTITLE6=Sugar Mama - Don't Fade Away
TTITLE7=Tim Wheeler and The Soul Shufflers - Stratisfaction Guaranteed
TTITLE8=Texan Tall - Lonesome Woman Blues
TTITLE9=Last Call - Don't Treat Me Wrong
TTITLE10=The Next Generation - Not Scratchin' For My Money
TTITLE11=Big Bill - Kroegen Van D'Aw Met
TTITLE12=Don Croissant - Lo-Lo
EXTD=
EXTT0=
EXTT1=
EXTT2=
EXTT3=
EXTT4=
EXTT5=
EXTT6=
EXTT7=
EXTT8=
EXTT9=
EXTT10=
EXTT11=
EXTT12=
PLAYORDER=
